<?xml version="1.0" encoding="UTF-8"?>
<svg width="1786px" height="1704px" viewBox="0 0 1786 1704" version="1.1" xmlns="http://www.w3.org/2000/svg" xmlns:xlink="http://www.w3.org/1999/xlink">
    <!-- Generator: Sketch 53.2 (72643) - https://sketchapp.com -->
    <title>Group 2</title>
    <desc>Created with Sketch.</desc>
    <g id="Page-1" stroke="none" stroke-width="1" fill="none" fill-rule="evenodd">
        <g id="Group-2" transform="translate(0.000000, 1.000000)">
            <ellipse id="Oval" stroke="#979797" stroke-width="3" fill="#F5F5F5" cx="886" cy="110.5" rx="259" ry="101.5"></ellipse>
            <text id="App" font-family="SFMono-Regular, SF Mono" font-size="40" font-weight="normal" fill="#050000" fill-opacity="0.9">
                <tspan x="848.910156" y="75">App</tspan>
            </text>
            <rect id="Rectangle" stroke="#979797" fill="#D8D8D8" x="777" y="110" width="217" height="70"></rect>
            <text id="Routes" font-family="SFMono-Regular, SF Mono" font-size="30" font-weight="normal" fill="#000000" fill-opacity="0.5">
                <tspan x="838.730469" y="154">Routes</tspan>
            </text>
            <path d="M994,144.5 L1582.42368,144" id="Line" stroke="#635C5C" stroke-width="2" fill="#060000" stroke-linecap="square"></path>
            <path id="Line-2" d="M1581.5,298.461783 L1581.5,144 L1581.5,143 L1583.5,143 L1583.5,144 L1583.5,298.461783 L1589.5,298.461783 L1582.5,312.461783 L1575.5,298.461783 L1581.5,298.461783 Z" fill="#635C5C" fill-rule="nonzero"></path>
            <path id="Line-2-Copy" d="M679.41758,314.461827 L679.000017,243.550192 L678.994129,242.55021 L680.994094,242.538433 L680.999983,243.538415 L681.417545,314.450051 L687.417441,314.41472 L680.5,328.455696 L673.417684,314.497158 L679.41758,314.461827 Z" fill="#635C5C" fill-rule="nonzero"></path>
            <rect id="Rectangle" stroke="#979797" fill="#D5E8D4" x="1395.5" y="329.5" width="375" height="628"></rect>
            <g id="taps" transform="translate(1.000000, 1074.000000)">
                <rect id="Rectangle-Copy" stroke="#979797" fill="#DAE8FC" x="0.5" y="0.5" width="866" height="628"></rect>
                <g id="Group" transform="translate(75.000000, 102.000000)">
                    <path id="Line-2-Copy-2" d="M356.742705,178.942184 L357.856058,106.703234 L357.871468,105.703353 L359.871231,105.734173 L359.85582,106.734054 L358.742468,178.973005 L364.741755,179.065466 L357.526843,192.955932 L350.743418,178.849723 L356.742705,178.942184 Z" fill="#080000" fill-rule="nonzero"></path>
                    <ellipse id="Oval" stroke="#979797" fill="#F5F5F5" cx="358.855939" cy="58.2101695" rx="358.855939" ry="58.2101695"></ellipse>
                    <ellipse id="Oval-Copy" stroke="#979797" fill="#F5F5F5" cx="358.855939" cy="251.210169" rx="358.855939" ry="58.2101695"></ellipse>
                    <text id="Beer" font-family="SFMono-Regular, SF Mono" font-size="35" font-weight="normal" fill="#000C00">
                        <tspan x="315.152272" y="70.1711864">Beer</tspan>
                    </text>
                    <text id="BeerDisplay" font-family="SFMono-Regular, SF Mono" font-size="35" font-weight="normal" fill="#000C00">
                        <tspan x="239.503418" y="266">BeerDisplay</tspan>
                    </text>
                </g>
                <text id="/beer" font-family="SFMono-Regular, SF Mono" font-size="35" font-weight="normal" fill="#0F12DD">
                    <tspan x="378.910645" y="74">/beer</tspan>
                </text>
            </g>
            <g id="taps-copy" transform="translate(905.000000, 1074.000000)">
                <rect id="Rectangle-Copy" stroke="#979797" fill="#DAE8FC" x="0.5" y="0.5" width="866" height="628"></rect>
                <g id="Group" transform="translate(74.000000, 256.000000)">
                    <ellipse id="Oval" stroke="#979797" fill="#F5F5F5" cx="358.855939" cy="58.2101695" rx="358.855939" ry="58.2101695"></ellipse>
                    <text id="Redirect" font-family="SFMono-Regular, SF Mono" font-size="35" font-weight="normal" fill="#000C00">
                        <tspan x="272.914062" y="70">Redirect</tspan>
                    </text>
                </g>
                <text id="/Redirect" font-family="SFMono-Regular, SF Mono" font-size="35" font-weight="normal" fill="#0F12DD">
                    <tspan x="336.13916" y="74">/Redirect</tspan>
                </text>
            </g>
            <text id="/error" font-family="SFMono-Regular, SF Mono" font-size="35" font-weight="normal" fill="#0E860D">
                <tspan x="1528.18555" y="399">/error</tspan>
            </text>
            <rect id="Rectangle" stroke="#979797" fill="#FFE6CC" x="0.5" y="329.5" width="1357" height="628"></rect>
            <g id="userAuth" transform="translate(27.000000, 360.000000)">
                <ellipse id="Oval-Copy-4" stroke="#979797" fill="#F5F5F5" cx="188" cy="327" rx="188" ry="48"></ellipse>
                <ellipse id="Oval" stroke="#979797" fill="#F5F5F5" cx="1118" cy="327" rx="188" ry="48"></ellipse>
                <ellipse id="Oval-Copy-5" stroke="#979797" fill="#F5F5F5" cx="654" cy="494" rx="188" ry="48"></ellipse>
                <text id="Register" font-family="SFMono-Regular, SF Mono" font-size="35" font-weight="normal" fill="#000000">
                    <tspan x="1045.91406" y="340">Register</tspan>
                </text>
                <text id="Login" font-family="SFMono-Regular, SF Mono" font-size="35" font-weight="normal" fill="#000000">
                    <tspan x="133.910645" y="329">Login</tspan>
                </text>
                <text id="/Main" font-family="SFMono-Regular, SF Mono" font-size="35" font-weight="normal" fill="#9E5205">
                    <tspan x="598.410645" y="33">/Main</tspan>
                </text>
                <ellipse id="Oval" stroke="#979797" fill="#F5F5F5" cx="652.5" cy="121" rx="266.5" ry="67"></ellipse>
                <text id="User" font-family="SFMono-Regular, SF Mono" font-size="35" font-weight="normal" fill="#000000">
                    <tspan x="616.457031" y="134">User</tspan>
                </text>
                <path d="M654.5,187 L654.5,225.61" id="Line-11" stroke="#635C5C" stroke-width="2" stroke-linecap="square"></path>
                <path d="M186.576638,225.75 L1117.84672,225.75" id="Line-12" stroke="#635C5C" stroke-width="2" stroke-linecap="square"></path>
                <path id="Line-13" d="M1117.5,264.614286 L1117.5,225.385714 L1117.5,224.385714 L1119.5,224.385714 L1119.5,225.385714 L1119.5,264.614286 L1125.5,264.614286 L1118.5,278.614286 L1111.5,264.614286 L1117.5,264.614286 Z" fill="#635C5C" fill-rule="nonzero"></path>
                <path id="Line-13-Copy" d="M186.5,264.614286 L186.5,225.385714 L186.5,224.385714 L188.5,224.385714 L188.5,225.385714 L188.5,264.614286 L194.5,264.614286 L187.5,278.614286 L180.5,264.614286 L186.5,264.614286 Z" fill="#635C5C" fill-rule="nonzero"></path>
                <path id="Line-14" d="M653.5,432.461165 L653.5,225.808252 L653.5,224.808252 L655.5,224.808252 L655.5,225.808252 L655.5,432.461165 L661.5,432.461165 L654.5,446.461165 L647.5,432.461165 L653.5,432.461165 Z" fill="#635C5C" fill-rule="nonzero"></path>
            </g>
            <text id="AgeConfirmation" font-family="SFMono-Regular, SF Mono" font-size="30" font-weight="normal" fill="#000000">
                <tspan x="540.913086" y="863">AgeConfirmation</tspan>
            </text>
            <ellipse id="Oval-Copy-2" stroke="#979797" fill="#F5F5F5" cx="1583.5" cy="643" rx="155.5" ry="58"></ellipse>
            <text id="Error404" font-family="SFMono-Regular, SF Mono" font-size="35" font-weight="normal" fill="#000C00">
                <tspan x="1497.45703" y="635">Error404</tspan>
            </text>
            <path d="M1145,88 L1349.42416,88" id="Line-4" stroke="#635C5C" stroke-width="2" stroke-linecap="square"></path>
            <path d="M1350,88 L1350,37" id="Line-5" stroke="#635C5C" stroke-width="2" stroke-linecap="square"></path>
            <ellipse id="Oval" stroke="#979797" fill="#F5F5F5" cx="1583.5" cy="36.5" rx="100.5" ry="36.5"></ellipse>
            <ellipse id="Oval-Copy-3" stroke="#979797" fill="#F5F5F5" cx="1718.5" cy="159.5" rx="66.5" ry="25.5"></ellipse>
            <path id="Line-2-Copy-3" d="M1338.45029,1058.99047 L1339.15329,990.528693 L1339.16356,989.528746 L1341.16346,989.549282 L1341.15319,990.549229 L1340.45018,1059.01101 L1346.44987,1059.07261 L1339.30648,1073 L1332.4506,1058.92886 L1338.45029,1058.99047 Z" fill="#080000" fill-rule="nonzero"></path>
            <path id="Line-2-Copy-4" d="M436.450287,1058.99047 L437.153293,990.528693 L437.163562,989.528746 L439.163456,989.549282 L439.153188,990.549229 L438.450182,1059.01101 L444.449865,1059.07261 L437.306481,1073 L430.450603,1058.92886 L436.450287,1058.99047 Z" fill="#080000" fill-rule="nonzero"></path>
            <text id="Header" font-family="SFMono-Regular, SF Mono" font-size="30" font-weight="normal" fill="#000000">
                <tspan x="1536.73047" y="46">Header</tspan>
            </text>
            <text id="img" font-family="SFMono-Regular, SF Mono" font-size="20" font-weight="normal" fill="#000000">
                <tspan x="1703.91016" y="164">img</tspan>
            </text>
            <path id="Line-8" d="M1717.5,120.461538 L1717.5,37 L1717.5,36 L1719.5,36 L1719.5,37 L1719.5,120.461538 L1725.5,120.461538 L1718.5,134.461538 L1711.5,120.461538 L1717.5,120.461538 Z" fill="#635C5C" fill-rule="nonzero"></path>
            <path d="M1684,37 L1719,36.5" id="Line-6" stroke="#635C5C" stroke-width="2" stroke-linecap="square"></path>
            <path d="M886.25,180 L886.25,244.1875" id="Line-9" stroke="#635C5C" stroke-width="2" stroke-linecap="square"></path>
            <path d="M886.422222,244 L679.577778,244" id="Line-10" stroke="#635C5C" stroke-width="2" stroke-linecap="square"></path>
            <path id="Line-16" d="M478.728589,848.895634 L213.60798,735.919956 L212.688023,735.527936 L213.472064,733.688023 L214.39202,734.080044 L479.51263,847.055721 L481.864752,841.535982 L492,853.463964 L476.376466,854.415373 L478.728589,848.895634 Z" fill="#635C5C" fill-rule="nonzero"></path>
            <path id="Line-15" d="M880.63126,847.036976 L1144.6066,734.080633 L1145.52597,733.687232 L1146.31277,735.525965 L1145.3934,735.919367 L881.418063,848.875709 L883.778472,854.39191 L868.153527,853.463964 L878.270851,841.520775 L880.63126,847.036976 Z" fill="#635C5C" fill-rule="nonzero"></path>
            <path d="M680,902 L680.5,990.463855" id="Line-17" stroke="#635C5C" stroke-width="2" stroke-linecap="square"></path>
            <path d="M437.353392,990.5 L1340.02363,990.5" id="Line-18" stroke="#635C5C" stroke-width="2" stroke-linecap="square"></path>
            <path d="M1350,37 L1483,37" id="Line-3" stroke="#635C5C" stroke-width="2" stroke-linecap="square"></path>
        </g>
    </g>
</svg>